<svg xmlns="http://www.w3.org/2000/svg" width="607" height="342" viewBox="0 0 607 342">
  <g id="Groupe_24" data-name="Groupe 24" transform="translate(-427 -820)" opacity="0.381">
    <g id="Groupe_6" data-name="Groupe 6" transform="translate(532.476 926.661)">
      <rect id="Rectangle_19" data-name="Rectangle 19" width="170" height="22" rx="11" transform="translate(-0.476 0.339)" fill="#494c5d"/>
      <rect id="Rectangle_23" data-name="Rectangle 23" width="145" height="22" rx="11" transform="translate(187.524 0.339)" fill="#494c5d"/>
      <rect id="Rectangle_24" data-name="Rectangle 24" width="45" height="22" rx="11" transform="translate(350.524 0.339)" fill="#d2d98a"/>
    </g>
    <g id="Groupe_10" data-name="Groupe 10" transform="translate(645.062 1139.983)">
      <rect id="Rectangle_33" data-name="Rectangle 33" width="108" height="22" rx="11" transform="translate(62.938 0.018)" fill="#ee81c3"/>
      <rect id="Rectangle_32" data-name="Rectangle 32" width="45" height="22" rx="11" transform="translate(-0.062 0.018)" fill="#494c5d"/>
    </g>
    <g id="Groupe_8" data-name="Groupe 8" transform="translate(611.879 1033.322)">
      <rect id="Rectangle_28" data-name="Rectangle 28" width="62" height="23" rx="11.5" transform="translate(0.121 -0.322)" fill="#494c5d"/>
      <rect id="Rectangle_29" data-name="Rectangle 29" width="157" height="23" rx="11.5" transform="translate(79.121 -0.322)" fill="#494c5d"/>
    </g>
    <g id="Groupe_5" data-name="Groupe 5" transform="translate(437.666 873.33)">
      <rect id="Rectangle_16" data-name="Rectangle 16" width="157" height="23" rx="11.5" transform="translate(0.334 -0.331)" fill="#85f789"/>
      <rect id="Rectangle_17" data-name="Rectangle 17" width="62" height="23" rx="11.5" transform="translate(175.334 -0.331)" fill="#494c5d"/>
      <rect id="Rectangle_20" data-name="Rectangle 20" width="157" height="23" rx="11.5" transform="translate(254.334 -0.331)" fill="#494c5d"/>
      <rect id="Rectangle_21" data-name="Rectangle 21" width="156" height="23" rx="11.5" transform="translate(429.334 -0.331)" fill="#494c5d"/>
    </g>
    <g id="Groupe_4" data-name="Groupe 4" transform="translate(479.145 820)">
      <rect id="Rectangle_15" data-name="Rectangle 15" width="108" height="23" rx="11.5" transform="translate(-0.145)" fill="#ee81c3"/>
      <rect id="Rectangle_13" data-name="Rectangle 13" width="164" height="23" rx="11.5" transform="translate(125.855)" fill="#85f789"/>
      <rect id="Rectangle_14" data-name="Rectangle 14" width="193" height="23" rx="11.5" transform="translate(307.855)" fill="#494c5d"/>
    </g>
    <g id="Groupe_7" data-name="Groupe 7" transform="translate(427 979.991)">
      <rect id="Rectangle_27" data-name="Rectangle 27" width="212" height="23" rx="11.5" transform="translate(0 0.009)" fill="#ee81c3"/>
      <rect id="Rectangle_25" data-name="Rectangle 25" width="165" height="23" rx="11.5" transform="translate(231 0.009)" fill="#85f789"/>
      <rect id="Rectangle_26" data-name="Rectangle 26" width="193" height="23" rx="11.5" transform="translate(414 0.009)" fill="#494c5d"/>
    </g>
    <g id="Groupe_9" data-name="Groupe 9" transform="translate(541.957 1086.652)">
      <rect id="Rectangle_31" data-name="Rectangle 31" width="165" height="22" rx="11" transform="translate(0.043 0.348)" fill="#85f789"/>
      <rect id="Rectangle_30" data-name="Rectangle 30" width="194" height="22" rx="11" transform="translate(182.043 0.348)" fill="#494c5d"/>
    </g>
  </g>
</svg>
