<svg xmlns="http://www.w3.org/2000/svg" width="364" height="155" viewBox="0 0 364 155"><g transform="translate(-752 -1102)"><rect width="126" height="39" transform="translate(752 1102)" fill="#ff2d20"/><rect width="161" height="38" transform="translate(752 1160)" fill="#61dafb"/><rect width="171" height="38" transform="translate(898 1102)" fill="#61dafb"/><rect width="126" height="39" transform="translate(752 1218)"/><rect width="144" height="39" transform="translate(898 1218)" fill="#ff4785"/><rect width="183" height="38" transform="translate(933 1160)" fill="#764abc"/><path d="M1.938,0H9.86V-1.088H3.2V-11.9H1.938Zm12.92-9.01A5.678,5.678,0,0,0,11.22-7.8l.544.9a4.555,4.555,0,0,1,2.975-1.054c1.666,0,2.533.833,2.533,2.363v.544H14.433c-2.567,0-3.451,1.156-3.451,2.533,0,1.547,1.241,2.6,3.264,2.6a3.357,3.357,0,0,0,3.077-1.479V0h1.156V-5.542C18.479-7.854,17.17-9.01,14.858-9.01ZM14.433-.867c-1.428,0-2.261-.646-2.261-1.683,0-.918.561-1.6,2.3-1.6h2.8v1.462A2.861,2.861,0,0,1,14.433-.867Zm8.483-6.324V-8.942H21.76V0h1.207V-4.556c0-2.108,1.139-3.3,3.009-3.3.085,0,.187.017.289.017V-9.01A3.372,3.372,0,0,0,22.916-7.191ZM31.552-9.01A5.678,5.678,0,0,0,27.914-7.8l.544.9a4.555,4.555,0,0,1,2.975-1.054c1.666,0,2.533.833,2.533,2.363v.544H31.127c-2.567,0-3.451,1.156-3.451,2.533,0,1.547,1.241,2.6,3.264,2.6a3.357,3.357,0,0,0,3.077-1.479V0h1.156V-5.542C35.173-7.854,33.864-9.01,31.552-9.01ZM31.127-.867c-1.428,0-2.261-.646-2.261-1.683,0-.918.561-1.6,2.3-1.6h2.805v1.462A2.861,2.861,0,0,1,31.127-.867ZM44.608-8.942,41.225-1.326,37.876-8.942H36.618L40.579,0H41.82L45.8-8.942ZM55.046-4.471A4.261,4.261,0,0,0,50.711-9.01a4.307,4.307,0,0,0-4.369,4.539A4.428,4.428,0,0,0,51.034.085a4.4,4.4,0,0,0,3.451-1.462l-.68-.782A3.525,3.525,0,0,1,51.068-.986,3.31,3.31,0,0,1,47.549-4.1h7.48C55.029-4.233,55.046-4.369,55.046-4.471Zm-4.335-3.5A3.11,3.11,0,0,1,53.89-5H47.549A3.106,3.106,0,0,1,50.711-7.973ZM57.511,0h1.207V-12.614H57.511Z" transform="translate(797 1127)" fill="#fff"/><path d="M11.441,0,8.534-4.08a3.689,3.689,0,0,0,2.72-3.74c0-2.55-1.836-4.08-4.862-4.08H1.938V0H3.2V-3.774h3.2a8.471,8.471,0,0,0,.952-.051L10.064,0ZM6.358-4.845H3.2v-5.967H6.358C8.738-10.812,10-9.724,10-7.82,10-5.95,8.738-4.845,6.358-4.845Zm15.419.374A4.261,4.261,0,0,0,17.442-9.01a4.307,4.307,0,0,0-4.369,4.539A4.428,4.428,0,0,0,17.765.085a4.4,4.4,0,0,0,3.451-1.462l-.68-.782A3.525,3.525,0,0,1,17.8-.986,3.31,3.31,0,0,1,14.28-4.1h7.48C21.76-4.233,21.777-4.369,21.777-4.471Zm-4.335-3.5A3.11,3.11,0,0,1,20.621-5H14.28A3.106,3.106,0,0,1,17.442-7.973ZM27.115-9.01A5.678,5.678,0,0,0,23.477-7.8l.544.9A4.555,4.555,0,0,1,27-7.956c1.666,0,2.533.833,2.533,2.363v.544H26.69c-2.567,0-3.451,1.156-3.451,2.533,0,1.547,1.241,2.6,3.264,2.6A3.357,3.357,0,0,0,29.58-1.394V0h1.156V-5.542C30.736-7.854,29.427-9.01,27.115-9.01ZM26.69-.867c-1.428,0-2.261-.646-2.261-1.683,0-.918.561-1.6,2.3-1.6h2.805v1.462A2.861,2.861,0,0,1,26.69-.867ZM37.757.085a3.942,3.942,0,0,0,3.5-1.768l-.9-.612a3.025,3.025,0,0,1-2.6,1.309,3.276,3.276,0,0,1-3.383-3.485,3.285,3.285,0,0,1,3.383-3.485,3.04,3.04,0,0,1,2.6,1.326l.9-.612a3.905,3.905,0,0,0-3.5-1.768A4.4,4.4,0,0,0,33.15-4.471,4.415,4.415,0,0,0,37.757.085Zm10.251-1.5a2,2,0,0,1-1.326.459,1.432,1.432,0,0,1-1.547-1.632V-7.922h2.72v-1.02h-2.72V-10.9H43.928v1.955h-1.6v1.02h1.6v5.406a2.369,2.369,0,0,0,2.618,2.6,2.874,2.874,0,0,0,1.887-.629ZM52.156.1c2.278,0,3.468-1.241,3.468-3.757V-11.9H50.031v1.088h4.352V-3.6c0,1.751-.748,2.618-2.21,2.618a3.017,3.017,0,0,1-2.567-1.462l-.748.85A3.912,3.912,0,0,0,52.156.1ZM62.679.1c3.043,0,4.437-1.5,4.437-3.247,0-4.335-7.327-2.363-7.327-5.627,0-1.19.969-2.159,3.145-2.159a6.127,6.127,0,0,1,3.264.986l.425-1A6.717,6.717,0,0,0,62.934-12c-3.026,0-4.386,1.513-4.386,3.264,0,4.4,7.327,2.4,7.327,5.661,0,1.173-.969,2.108-3.2,2.108a5.844,5.844,0,0,1-3.927-1.445l-.493.969A6.453,6.453,0,0,0,62.679.1ZM67.49,1.7H68.6l5.61-16.014H73.1ZM85.051,0,82.144-4.08a3.689,3.689,0,0,0,2.72-3.74c0-2.55-1.836-4.08-4.862-4.08H75.548V0h1.258V-3.774H80a8.471,8.471,0,0,0,.952-.051L83.674,0ZM79.968-4.845H76.806v-5.967h3.162c2.38,0,3.638,1.088,3.638,2.992C83.606-5.95,82.348-4.845,79.968-4.845ZM96.543-11.9v9.656L88.876-11.9H87.839V0H89.1V-9.656L96.747,0h1.037V-11.9Z" transform="translate(798 1185)" fill="#fff"/><path d="M4.25,0H5.508V-10.812H9.69V-11.9H.068v1.088H4.25Zm9.826-9.01A5.678,5.678,0,0,0,10.438-7.8l.544.9a4.555,4.555,0,0,1,2.975-1.054c1.666,0,2.533.833,2.533,2.363v.544H13.651c-2.567,0-3.451,1.156-3.451,2.533,0,1.547,1.241,2.6,3.264,2.6a3.357,3.357,0,0,0,3.077-1.479V0H17.7V-5.542C17.7-7.854,16.388-9.01,14.076-9.01ZM13.651-.867c-1.428,0-2.261-.646-2.261-1.683,0-.918.561-1.6,2.3-1.6H16.49v1.462A2.861,2.861,0,0,1,13.651-.867ZM21.59-10.9a.868.868,0,0,0,.884-.884.857.857,0,0,0-.884-.833.871.871,0,0,0-.884.85A.874.874,0,0,0,21.59-10.9ZM20.978,0h1.207V-8.942H20.978Zm4.573,0h1.207V-12.614H25.551ZM42.143-8.942,39.3-1.343l-2.856-7.6H35.411l-2.873,7.6-2.805-7.6H28.577L31.943,0h1.139L35.9-7.327,38.726,0h1.139l3.383-8.942ZM45.679-10.9a.868.868,0,0,0,.884-.884.857.857,0,0,0-.884-.833.871.871,0,0,0-.884.85A.874.874,0,0,0,45.679-10.9ZM45.067,0h1.207V-8.942H45.067ZM54.2-9.01a3.758,3.758,0,0,0-3.4,1.717V-8.942H49.64V0h1.207V-4.692a2.932,2.932,0,0,1,3.128-3.23c1.7,0,2.686.969,2.686,2.856V0h1.207V-5.185C57.868-7.752,56.372-9.01,54.2-9.01Zm13.94-3.6v5.372a3.906,3.906,0,0,0-3.4-1.768,4.326,4.326,0,0,0-4.454,4.539A4.34,4.34,0,0,0,64.736.085a3.873,3.873,0,0,0,3.451-1.853V0h1.156V-12.614ZM64.838-.986a3.274,3.274,0,0,1-3.332-3.485,3.274,3.274,0,0,1,3.332-3.485,3.27,3.27,0,0,1,3.315,3.485A3.27,3.27,0,0,1,64.838-.986ZM78.132.1A5.786,5.786,0,0,0,82.5-1.649l-.8-.8A4.668,4.668,0,0,1,78.183-1.02a4.863,4.863,0,0,1-5.032-4.93,4.863,4.863,0,0,1,5.032-4.93A4.716,4.716,0,0,1,81.7-9.469l.8-.8A5.762,5.762,0,0,0,78.149-12,5.975,5.975,0,0,0,71.91-5.95,5.97,5.97,0,0,0,78.132.1ZM88.4.1c3.043,0,4.437-1.5,4.437-3.247,0-4.335-7.327-2.363-7.327-5.627,0-1.19.969-2.159,3.145-2.159a6.127,6.127,0,0,1,3.264.986l.425-1A6.717,6.717,0,0,0,88.655-12c-3.026,0-4.386,1.513-4.386,3.264,0,4.4,7.327,2.4,7.327,5.661,0,1.173-.969,2.108-3.2,2.108a5.844,5.844,0,0,1-3.927-1.445l-.493.969A6.453,6.453,0,0,0,88.4.1ZM98.855.1c3.043,0,4.437-1.5,4.437-3.247,0-4.335-7.327-2.363-7.327-5.627,0-1.19.969-2.159,3.145-2.159a6.127,6.127,0,0,1,3.264.986l.425-1A6.717,6.717,0,0,0,99.11-12c-3.026,0-4.386,1.513-4.386,3.264,0,4.4,7.327,2.4,7.327,5.661,0,1.173-.969,2.108-3.2,2.108a5.844,5.844,0,0,1-3.927-1.445l-.493.969A6.453,6.453,0,0,0,98.855.1Z" transform="translate(944 1127)" fill="#fff"/><path d="M10.642-11.9v9.656L2.975-11.9H1.938V0H3.2V-9.656L10.846,0h1.037V-11.9ZM23.307-4.471A4.261,4.261,0,0,0,18.972-9.01,4.307,4.307,0,0,0,14.6-4.471,4.428,4.428,0,0,0,19.3.085a4.4,4.4,0,0,0,3.451-1.462l-.68-.782A3.525,3.525,0,0,1,19.329-.986,3.31,3.31,0,0,1,15.81-4.1h7.48C23.29-4.233,23.307-4.369,23.307-4.471Zm-4.335-3.5A3.11,3.11,0,0,1,22.151-5H15.81A3.106,3.106,0,0,1,18.972-7.973ZM32.589,0l-3.57-4.59,3.366-4.352H31.059l-2.686,3.5-2.686-3.5h-1.36L27.693-4.59,24.157,0h1.36l2.856-3.74L31.212,0Zm6.29-1.411a2,2,0,0,1-1.326.459,1.432,1.432,0,0,1-1.547-1.632V-7.922h2.72v-1.02h-2.72V-10.9H34.8v1.955H33.2v1.02h1.6v5.406a2.369,2.369,0,0,0,2.618,2.6A2.874,2.874,0,0,0,39.3-.544ZM43.027.1c2.278,0,3.468-1.241,3.468-3.757V-11.9H40.9v1.088h4.352V-3.6c0,1.751-.748,2.618-2.21,2.618a3.017,3.017,0,0,1-2.567-1.462l-.748.85A3.912,3.912,0,0,0,43.027.1ZM53.55.1c3.043,0,4.437-1.5,4.437-3.247,0-4.335-7.327-2.363-7.327-5.627,0-1.19.969-2.159,3.145-2.159a6.127,6.127,0,0,1,3.264.986l.425-1A6.717,6.717,0,0,0,53.805-12c-3.026,0-4.386,1.513-4.386,3.264,0,4.4,7.327,2.4,7.327,5.661,0,1.173-.969,2.108-3.2,2.108a5.844,5.844,0,0,1-3.927-1.445l-.493.969A6.453,6.453,0,0,0,53.55.1Z" transform="translate(799 1243)" fill="#fff"/><path d="M5.219.1c3.043,0,4.437-1.5,4.437-3.247,0-4.335-7.327-2.363-7.327-5.627,0-1.19.969-2.159,3.145-2.159a6.127,6.127,0,0,1,3.264.986l.425-1A6.717,6.717,0,0,0,5.474-12c-3.026,0-4.386,1.513-4.386,3.264,0,4.4,7.327,2.4,7.327,5.661,0,1.173-.969,2.108-3.2,2.108A5.844,5.844,0,0,1,1.292-2.414L.8-1.445A6.453,6.453,0,0,0,5.219.1Zm11.2-1.513A2,2,0,0,1,15.1-.952a1.432,1.432,0,0,1-1.547-1.632V-7.922h2.72v-1.02h-2.72V-10.9H12.342v1.955h-1.6v1.02h1.6v5.406A2.369,2.369,0,0,0,14.96.085a2.874,2.874,0,0,0,1.887-.629Zm5.95,1.5a4.4,4.4,0,0,0,4.539-4.556A4.385,4.385,0,0,0,22.372-9.01a4.4,4.4,0,0,0-4.556,4.539A4.412,4.412,0,0,0,22.372.085Zm0-1.071A3.274,3.274,0,0,1,19.04-4.471a3.274,3.274,0,0,1,3.332-3.485,3.261,3.261,0,0,1,3.315,3.485A3.261,3.261,0,0,1,22.372-.986Zm8.16-6.205V-8.942H29.376V0h1.207V-4.556c0-2.108,1.139-3.3,3.009-3.3.085,0,.187.017.289.017V-9.01A3.372,3.372,0,0,0,30.532-7.191Zm12.24-1.751-3.366,7.6-3.366-7.6H34.782l4,8.925L38.386.85c-.51,1.122-1.054,1.5-1.853,1.5a2.233,2.233,0,0,1-1.632-.68l-.561.9a3.06,3.06,0,0,0,2.176.816c1.275,0,2.227-.561,2.975-2.312L43.962-8.942Zm7.5-.068a3.906,3.906,0,0,0-3.4,1.768v-5.372H45.662V0h1.156V-1.768A3.873,3.873,0,0,0,50.269.085a4.34,4.34,0,0,0,4.454-4.556A4.326,4.326,0,0,0,50.269-9.01ZM50.184-.986a3.274,3.274,0,0,1-3.332-3.485,3.274,3.274,0,0,1,3.332-3.485,3.283,3.283,0,0,1,3.332,3.485A3.283,3.283,0,0,1,50.184-.986ZM60.843.085a4.4,4.4,0,0,0,4.539-4.556A4.385,4.385,0,0,0,60.843-9.01a4.4,4.4,0,0,0-4.556,4.539A4.412,4.412,0,0,0,60.843.085Zm0-1.071a3.274,3.274,0,0,1-3.332-3.485,3.274,3.274,0,0,1,3.332-3.485,3.261,3.261,0,0,1,3.315,3.485A3.261,3.261,0,0,1,60.843-.986ZM71.5.085a4.4,4.4,0,0,0,4.539-4.556A4.385,4.385,0,0,0,71.5-9.01a4.4,4.4,0,0,0-4.556,4.539A4.412,4.412,0,0,0,71.5.085Zm0-1.071A3.274,3.274,0,0,1,68.17-4.471,3.274,3.274,0,0,1,71.5-7.956a3.261,3.261,0,0,1,3.315,3.485A3.261,3.261,0,0,1,71.5-.986ZM85.425,0H86.9L82.722-5.287l3.825-3.655h-1.5L79.713-4.063v-8.551H78.506V0h1.207V-2.55l2.108-1.938Z" transform="translate(945 1243)" fill="#fff"/><path d="M11.441,0,8.534-4.08a3.689,3.689,0,0,0,2.72-3.74c0-2.55-1.836-4.08-4.862-4.08H1.938V0H3.2V-3.774h3.2a8.471,8.471,0,0,0,.952-.051L10.064,0ZM6.358-4.845H3.2v-5.967H6.358C8.738-10.812,10-9.724,10-7.82,10-5.95,8.738-4.845,6.358-4.845Zm15.419.374A4.261,4.261,0,0,0,17.442-9.01a4.307,4.307,0,0,0-4.369,4.539A4.428,4.428,0,0,0,17.765.085a4.4,4.4,0,0,0,3.451-1.462l-.68-.782A3.525,3.525,0,0,1,17.8-.986,3.31,3.31,0,0,1,14.28-4.1h7.48C21.76-4.233,21.777-4.369,21.777-4.471Zm-4.335-3.5A3.11,3.11,0,0,1,20.621-5H14.28A3.106,3.106,0,0,1,17.442-7.973Zm13.753-4.641v5.372A3.906,3.906,0,0,0,27.8-9.01a4.326,4.326,0,0,0-4.454,4.539A4.34,4.34,0,0,0,27.8.085a3.873,3.873,0,0,0,3.451-1.853V0H32.4V-12.614ZM27.9-.986a3.274,3.274,0,0,1-3.332-3.485A3.274,3.274,0,0,1,27.9-7.956a3.27,3.27,0,0,1,3.315,3.485A3.27,3.27,0,0,1,27.9-.986ZM42.619-8.942V-4.25A2.908,2.908,0,0,1,39.576-1c-1.7,0-2.686-.969-2.686-2.873V-8.942H35.683v5.185c0,2.567,1.5,3.842,3.774,3.842A3.557,3.557,0,0,0,42.67-1.632V0h1.156V-8.942ZM54.281,0l-3.57-4.59,3.366-4.352H52.751l-2.686,3.5-2.686-3.5h-1.36L49.385-4.59,45.849,0h1.36l2.856-3.74L52.9,0Zm9.027,0h1.258V-10.812h4.182V-11.9H59.126v1.088h4.182Zm9.911.085a4.4,4.4,0,0,0,4.539-4.556A4.385,4.385,0,0,0,73.219-9.01a4.4,4.4,0,0,0-4.556,4.539A4.412,4.412,0,0,0,73.219.085Zm0-1.071a3.274,3.274,0,0,1-3.332-3.485,3.274,3.274,0,0,1,3.332-3.485,3.261,3.261,0,0,1,3.315,3.485A3.261,3.261,0,0,1,73.219-.986ZM83.878.085a4.4,4.4,0,0,0,4.539-4.556A4.385,4.385,0,0,0,83.878-9.01a4.4,4.4,0,0,0-4.556,4.539A4.412,4.412,0,0,0,83.878.085Zm0-1.071a3.274,3.274,0,0,1-3.332-3.485,3.274,3.274,0,0,1,3.332-3.485,3.261,3.261,0,0,1,3.315,3.485A3.261,3.261,0,0,1,83.878-.986Zm7,.986h1.207V-12.614H90.882Zm11.492,0h1.479L99.671-5.287,103.5-8.942H102L96.662-4.063v-8.551H95.455V0h1.207V-2.55L98.77-4.488Zm3.774-10.9a.868.868,0,0,0,.884-.884.857.857,0,0,0-.884-.833.871.871,0,0,0-.884.85A.874.874,0,0,0,106.148-10.9ZM105.536,0h1.207V-8.942h-1.207Zm8.857-1.411a2,2,0,0,1-1.326.459,1.432,1.432,0,0,1-1.547-1.632V-7.922h2.72v-1.02h-2.72V-10.9h-1.207v1.955h-1.6v1.02h1.6v5.406a2.369,2.369,0,0,0,2.618,2.6,2.874,2.874,0,0,0,1.887-.629Z" transform="translate(979 1184)" fill="#fff"/><path d="M20.9,4.791a.321.321,0,0,1,.012.088V9.423a.332.332,0,0,1-.167.288l-3.814,2.2v4.354a.334.334,0,0,1-.166.288L8.8,21.131a.279.279,0,0,1-.058.024c-.007,0-.014.007-.021.009a.307.307,0,0,1-.169,0,.138.138,0,0,1-.026-.011.473.473,0,0,1-.055-.022L.511,16.549a.332.332,0,0,1-.167-.288V2.624a.32.32,0,0,1,.012-.086c0-.011.009-.018.012-.028a.326.326,0,0,1,.02-.051.108.108,0,0,1,.02-.029l.029-.04c.011-.009.022-.016.033-.024s.024-.021.036-.03h0L4.49.044a.331.331,0,0,1,.331,0L8.8,2.336h0a.281.281,0,0,1,.035.029l.034.024c.011.012.018.026.029.04a.169.169,0,0,1,.022.029.418.418,0,0,1,.021.051c0,.01.009.019.011.028a.281.281,0,0,1,.012.086V11.14L12.287,9.23V4.877A.319.319,0,0,1,12.3,4.79c0-.009.009-.018.011-.028a.43.43,0,0,1,.021-.052c.006-.011.016-.018.022-.029s.019-.026.029-.038a.2.2,0,0,1,.033-.025c.012-.009.023-.02.036-.028h0L16.434,2.3a.331.331,0,0,1,.331,0L20.747,4.59c.014.009.024.019.037.027s.022.016.032.025.019.026.03.039a.2.2,0,0,1,.021.029.265.265,0,0,1,.021.053A.117.117,0,0,1,20.9,4.791Zm-.653,4.44V5.452l-1.392.8L16.93,7.361v3.779Zm-3.979,6.838V12.287l-1.894,1.081L8.969,16.454V20.27ZM1,3.2V16.069l7.3,4.2V16.454L4.491,14.3l0,0h0c-.012-.009-.022-.019-.035-.027s-.021-.016-.031-.024v0a.18.18,0,0,1-.027-.035.146.146,0,0,1-.025-.032h0a.45.45,0,0,1-.018-.041.347.347,0,0,1-.016-.038.432.432,0,0,1-.007-.05.256.256,0,0,1-.005-.036v-8.9L2.4,4ZM4.655.715,1.338,2.624,4.655,4.534,7.971,2.624ZM6.381,12.631l1.925-1.108V3.2L6.912,4,4.987,5.108v8.325ZM16.6,2.969,13.282,4.878,16.6,6.786l3.317-1.909Zm-.332,4.392L14.343,6.253l-1.394-.8V9.232l1.925,1.108,1.394.8ZM8.635,15.88,13.5,13.1l2.432-1.387L12.618,9.806,8.8,12l-3.477,2Z" transform="translate(762.327 1110.984)" fill="#fff"/><path d="M10.52,0c-.16,0-.282,0-.326.006s-.2.019-.331.03a10.935,10.935,0,0,0-7.84,4.521A10.8,10.8,0,0,0,.1,9.323,8.345,8.345,0,0,0,0,10.911,8.363,8.363,0,0,0,.1,12.5a10.952,10.952,0,0,0,7.462,8.813,11.527,11.527,0,0,0,2.3.478,20.033,20.033,0,0,0,2.09,0,11.015,11.015,0,0,0,3.931-1.149c.188-.1.224-.122.2-.143s-.817-1.085-1.777-2.382L12.562,15.76l-2.186-3.235c-1.2-1.779-2.192-3.233-2.2-3.233s-.017,1.435-.021,3.19a24.917,24.917,0,0,1-.047,3.269.388.388,0,0,1-.188.194c-.068.034-.128.04-.45.04H7.1L7,15.924a.4.4,0,0,1-.143-.156l-.045-.1,0-4.275L6.825,7.12l.066-.083a.586.586,0,0,1,.158-.13c.087-.043.122-.047.491-.047.435,0,.508.017.621.141.032.034,1.216,1.817,2.632,3.964q2.152,3.26,4.3,6.518L16.823,20.1l.087-.058a11.2,11.2,0,0,0,2.242-1.966A10.858,10.858,0,0,0,21.72,12.5a8.356,8.356,0,0,0,.1-1.589,8.38,8.38,0,0,0-.1-1.589A10.953,10.953,0,0,0,14.258.509,11.451,11.451,0,0,0,11.986.034C11.833.018,11,0,10.521,0Zm3.7,6.561c.316,0,.371,0,.442.043a.43.43,0,0,1,.215.252c.017.055.021,1.241.017,3.913L14.887,14.6l-.676-1.036-.678-1.036V9.742c0-1.8.008-2.815.021-2.864a.435.435,0,0,1,.211-.269c.087-.045.119-.049.454-.049Z" transform="translate(762.576 1226.342)" fill="#fff"/><path d="M14.1,11.9a2.215,2.215,0,1,1-2.215-2.215A2.215,2.215,0,0,1,14.1,11.9ZM16.721,1.314c-1.333,0-3.078.951-4.843,2.6C10.115,2.274,8.369,1.334,7.037,1.334a2.177,2.177,0,0,0-1.1.275c-1.362.786-1.667,3.234-.964,6.306C1.962,8.846,0,10.335,0,11.9S1.971,14.973,5,15.9c-.7,3.084-.386,5.536.979,6.321a2.127,2.127,0,0,0,1.092.272c1.332,0,3.078-.951,4.843-2.6,1.763,1.639,3.509,2.579,4.842,2.579a2.175,2.175,0,0,0,1.1-.272c1.361-.785,1.667-3.233.964-6.306,3-.923,4.966-2.415,4.966-3.987s-1.971-3.068-5-3.995c.7-3.081.386-5.535-.979-6.321a2.147,2.147,0,0,0-1.082-.275Zm0,1.08V2.4a1.126,1.126,0,0,1,.553.126c.66.378.946,1.818.723,3.67-.053.456-.141.936-.248,1.427a23.258,23.258,0,0,0-3.078-.529A23.669,23.669,0,0,0,12.65,4.669C14.227,3.2,15.709,2.4,16.717,2.395Zm-9.679.02c1,0,2.491.8,4.072,2.259a22.78,22.78,0,0,0-2,2.419,22.519,22.519,0,0,0-3.084.533c-.111-.485-.193-.955-.252-1.407-.228-1.851.053-3.289.707-3.673a1.451,1.451,0,0,1,.558-.131Zm4.837,3.022a19.7,19.7,0,0,1,1.347,1.549c-.436-.02-.882-.034-1.332-.034s-.906.01-1.347.034a18.821,18.821,0,0,1,1.332-1.55Zm.015,2.6c.733,0,1.463.034,2.182.092q.6.865,1.172,1.843.553.951,1.009,1.928c-.305.649-.64,1.3-1,1.932-.376.654-.766,1.276-1.169,1.853-.721.062-1.452.1-2.189.1s-1.463-.035-2.182-.092c-.4-.577-.795-1.193-1.172-1.843q-.553-.951-1.009-1.928c.3-.651.64-1.3,1-1.936C8.906,9.329,9.3,8.709,9.7,8.132c.721-.063,1.452-.1,2.189-.1Zm-3.6.252c-.238.373-.476.756-.7,1.149s-.431.775-.629,1.163c-.263-.65-.485-1.3-.67-1.929.634-.149,1.3-.28,2-.382Zm7.192,0c.689.1,1.352.228,1.987.383-.178.626-.4,1.27-.654,1.915-.2-.386-.406-.776-.634-1.163s-.461-.767-.7-1.135Zm3.035.669c.479.149.935.314,1.362.493,1.716.733,2.825,1.692,2.825,2.453s-1.115,1.724-2.83,2.452c-.416.178-.872.339-1.342.488a23.743,23.743,0,0,0-1.09-2.952,23.067,23.067,0,0,0,1.075-2.936Zm-13.27,0a23.111,23.111,0,0,0,1.09,2.952A22.927,22.927,0,0,0,5.258,14.85a14.065,14.065,0,0,1-1.357-.5c-1.716-.73-2.825-1.69-2.825-2.451S2.184,10.178,3.9,9.451C4.316,9.272,4.772,9.112,5.244,8.961ZM16.813,13.2c.263.651.485,1.3.67,1.93-.634.156-1.3.287-2,.386.238-.372.476-.755.7-1.147s.431-.781.63-1.169Zm-9.853.02c.2.388.406.776.634,1.164s.461.765.7,1.132c-.689-.1-1.352-.228-1.987-.382.178-.624.4-1.27.654-1.915ZM17.753,16.18a13.686,13.686,0,0,1,.252,1.41c.228,1.851-.053,3.289-.707,3.674a1.062,1.062,0,0,1-.558.127c-1,0-2.491-.8-4.072-2.259a22.851,22.851,0,0,0,2-2.417,22.663,22.663,0,0,0,3.084-.535Zm-11.72.01a23.594,23.594,0,0,0,3.078.527,23.548,23.548,0,0,0,2.016,2.423c-1.58,1.469-3.063,2.274-4.072,2.274a1.174,1.174,0,0,1-.548-.131c-.66-.376-.946-1.817-.723-3.669.053-.456.141-.935.248-1.425Zm4.518.634c.436.02.882.034,1.332.034s.906-.01,1.347-.034a18.988,18.988,0,0,1-1.332,1.55A20.084,20.084,0,0,1,10.551,16.824Z" transform="translate(761.067 1167.423)" fill="#fff"/><path d="M12.573,4.8q-5.029,0-6.286,5.029,1.886-2.514,4.4-1.886a5.357,5.357,0,0,1,2.4,1.7,7.257,7.257,0,0,0,5.775,2.7q5.029,0,6.286-5.029Q23.26,9.829,20.745,9.2a5.357,5.357,0,0,1-2.4-1.7A7.254,7.254,0,0,0,12.573,4.8ZM6.287,12.343q-5.029,0-6.286,5.029,1.886-2.514,4.4-1.886a5.357,5.357,0,0,1,2.4,1.7,7.257,7.257,0,0,0,5.775,2.7q5.029,0,6.286-5.029-1.886,2.514-4.4,1.886a5.357,5.357,0,0,1-2.4-1.7A7.254,7.254,0,0,0,6.287,12.343Z" transform="translate(905.879 1108.661)" fill="#fff"/><path d="M13.075,13.106a1.309,1.309,0,0,0,1.179-1.379,1.359,1.359,0,0,0-1.343-1.3h-.048a1.344,1.344,0,0,0-1.3,1.391,1.435,1.435,0,0,0,.388.906A8.669,8.669,0,0,1,8.022,16.5a6.455,6.455,0,0,1-3.886.731,3.389,3.389,0,0,1-2.449-1.414,3.513,3.513,0,0,1-.2-3.721,5.538,5.538,0,0,1,1.65-1.92,7.829,7.829,0,0,1-.33-1.213c-3.488,2.5-3.132,5.913-2.073,7.527A5.017,5.017,0,0,0,4.9,18.417a6.109,6.109,0,0,0,1.449-.152,9.215,9.215,0,0,0,6.714-5.135Zm4.2-2.945A9.717,9.717,0,0,0,9.706,6.839h-.4a1.268,1.268,0,0,0-1.178-.707H8.092A1.318,1.318,0,0,0,6.8,7.511a1.357,1.357,0,0,0,1.343,1.3H8.2a1.328,1.328,0,0,0,1.178-.825h.436a9.121,9.121,0,0,1,5.1,1.566,6.468,6.468,0,0,1,2.544,3.063,3.252,3.252,0,0,1-.035,2.827,3.5,3.5,0,0,1-3.3,1.979,6.148,6.148,0,0,1-2.332-.506c-.283.234-.755.623-1.1.859a7.562,7.562,0,0,0,3.1.741,5.26,5.26,0,0,0,4.653-2.544,5.389,5.389,0,0,0-1.156-5.829ZM5.1,13.529a1.356,1.356,0,0,0,1.343,1.3h.047a1.343,1.343,0,0,0-.035-2.684H6.409a.511.511,0,0,0-.178.023A8.8,8.8,0,0,1,5,6.839,6.4,6.4,0,0,1,6.408,3.117,4.186,4.186,0,0,1,9.353,1.775c2.544-.048,3.6,3.121,3.686,4.381l1.178.354C13.945,2.646,11.544.62,9.247.62A5.456,5.456,0,0,0,4.3,4.483a9.9,9.9,0,0,0,.967,8.363A1.037,1.037,0,0,0,5.1,13.529Z" transform="translate(942.067 1169.513)" fill="#fff"/><path d="M16.71.243l-.12,2.71a.18.18,0,0,0,.29.15l1.06-.8.9.7a.18.18,0,0,0,.28-.14L19.02.1,20.35,0a1.2,1.2,0,0,1,1.279,1.2V22.8a1.2,1.2,0,0,1-1.26,1.2l-16.1-.72a1.2,1.2,0,0,1-1.15-1.16l-.75-19.8A1.2,1.2,0,0,1,3.5,1.052L16.7.222ZM13.64,9.3c0,.47,3.16.24,3.59-.08,0-3.2-1.72-4.89-4.859-4.89s-4.9,1.72-4.9,4.29c0,4.45,6,4.53,6,6.959,0,.7-.32,1.1-1.05,1.1-.96,0-1.35-.49-1.3-2.16,0-.36-3.649-.48-3.769,0-.27,4.03,2.23,5.2,5.1,5.2,2.79,0,4.969-1.49,4.969-4.18,0-4.77-6.1-4.64-6.1-7a1.011,1.011,0,0,1,1.13-1.1c.45,0,1.25.07,1.19,1.87Z" transform="translate(907.629 1225)" fill="#fff"/></g></svg>